<?xml version="1.0" encoding="utf-8" ?>
<svg baseProfile="full" height="200mm" version="1.1" viewBox="0,0,200,200" width="200mm" xmlns="http://www.w3.org/2000/svg" xmlns:ev="http://www.w3.org/2001/xml-events" xmlns:xlink="http://www.w3.org/1999/xlink"><defs /><rect fill="#1a1a1a" height="200" width="200" x="0" y="0" /><rect fill="#1a1a1a" height="200" width="180" x="10" y="0" /><text alignment-baseline="middle" fill="#e1ed5e" style="dominant-baseline: central; font-size:9.0px; font-family:Arial;" text-anchor="middle" x="100.0" y="100.0">2024</text><line stroke="#e1ed5e" stroke-width="0.3" x1="100.0" x2="100.0" y1="15.0" y2="10.0" /><path d="M 100.0 14.0 a86.0,86.0 0 0,1 42.35913384403234,11.155469271406648" fill="none" id="id61" stroke="none" /><text fill="#e1ed5e" style="font-size:6.75px; font-family:Arial;" text-anchor="middle"><textPath startOffset="22.145653131862478" xlink:href="#id61">January</textPath></text><path d="M 100.0 79.0 l 0.0 -63.0 a84.0,84.0 0 0,0 1.441971699395419,0.012377592777739643 l -1.0814787745465644 62.990716805416696" fill="red" stroke="none" /><line stroke="#e1ed5e" stroke-width="0.3" x1="143.13028292997686" x2="145.6673583964461" y1="26.7553504044142" y2="22.446841604673864" /><path d="M 143.63769802327073 25.89364864446614 a86.0,86.0 0 0,1 29.32050498858742,28.57503671076993" fill="none" id="id62" stroke="none" /><text fill="#e1ed5e" style="font-size:6.75px; font-family:Arial;" text-anchor="middle"><textPath startOffset="20.669276256404974" xlink:href="#id62">February</textPath></text><line stroke="#e1ed5e" stroke-width="0.3" x1="172.87174338648825" x2="177.1583165268699" y1="56.24261187166439" y2="53.66864786411523" /><path d="M 173.72905801456457 55.72781907015455 a86.0,86.0 0 0,1 12.242430191666344,42.057860355516425" fill="none" id="id63" stroke="none" /><text fill="#e1ed5e" style="font-size:6.75px; font-family:Arial;" text-anchor="middle"><textPath startOffset="22.145653131862474" xlink:href="#id63">March</textPath></text><path d="M 120.86939407059847 97.66154086499901 l 41.46237232569232 -4.645945301326457 a62.72185430463576,62.72185430463576 0 0,0 0.11071186086601725,1.0710368241748207 l -41.53601657904 3.9335039548687054" fill="red" stroke="none" /><line stroke="#e1ed5e" stroke-width="0.3" x1="184.99686870605535" x2="189.99668451229388" y1="99.2704041080226" y2="99.22748670261217" /><path d="M 185.99683186730306 99.26182062694052 a86.0,86.0 0 0,1 -10.086455211305974,41.156179273409016" fill="none" id="id64" stroke="none" /><text fill="#e1ed5e" style="font-size:6.75px; font-family:Arial;" text-anchor="middle"><textPath startOffset="21.40746469413373" xlink:href="#id64">April</textPath></text><line stroke="#e1ed5e" stroke-width="0.3" x1="174.33088141563837" x2="178.70328620479359" y1="141.23008692659167" y2="143.65538615756765" /><path d="M 175.20536237346943 141.71514677278685 a86.0,86.0 0 0,1 -30.301960400862466,31.631185727798858" fill="none" id="id65" stroke="none" /><text fill="#e1ed5e" style="font-size:6.75px; font-family:Arial;" text-anchor="middle"><textPath startOffset="22.145653131862474" xlink:href="#id65">May</textPath></text><path d="M 114.39649973595853 115.28858382429668 l 30.861900427349507 32.77426876771415 a66.017880794702,66.017880794702 0 0,0 -0.831731705677217,0.7698384497414531 l -30.294738950358322 -33.29922496358798" fill="red" stroke="none" /><path d="M 113.86319453409587 115.77377054828091 l 29.12188944513384 33.135364357051024 a65.1139072847682,65.1139072847682 0 0,0 -0.8459242885763643,0.7306892528478091 l -28.54878567679462 -33.63039774236355" fill="red" stroke="none" /><path d="M 112.7482090630111 116.68781488649013 l 30.114477965404372 39.420818344443894 a70.60728476821191,70.60728476821191 0 0,0 -0.9694952154304894,0.7275272838282094 l -29.433329761063117 -39.93196465553611" fill="red" stroke="none" /><path d="M 112.45986205192187 116.90419585922612 l 26.314238465946254 35.700318274882164 a65.35033112582781,65.35033112582781 0 0,0 -0.9087398889090893,0.6578575995482854 l -25.697517566663194 -36.14677664580353" fill="red" stroke="none" /><path d="M 112.16784306229584 117.11559508785304 l 28.20360974704334 39.671909144030224 a69.67549668874173,69.67549668874173 0 0,0 -0.9807818498142189,0.6846619025273767 l -27.518432806055365 -40.15021586236272" fill="red" stroke="none" /><path d="M 111.8722381534696 117.32195027204791 l 25.00246180664458 36.47933898351812 a65.2251655629139,65.2251655629139 0 0,0 -0.9290042442550028,0.6250755156768886 l -24.372561274292572 -36.90316417325213" fill="red" stroke="none" /><path d="M 111.5731344415666 117.5232005979908 l 24.24993203517664 36.71748787552508 a65.00264900662252,65.00264900662252 0 0,0 -0.9363921555170444,0.6069580820370837 l -23.616054247402587 -37.12835979926606" fill="red" stroke="none" /><line stroke="#e1ed5e" stroke-width="0.3" x1="143.1302829299769" x2="145.66735839644613" y1="173.24464959558577" y2="177.55315839532614" /><path d="M 143.63769802327073 174.10635135553383 a86.0,86.0 0 0,1 -40.68552437913181,11.842963189579606" fill="none" id="id66" stroke="none" /><text fill="#e1ed5e" style="font-size:6.75px; font-family:Arial;" text-anchor="middle"><textPath startOffset="21.407464694133747" xlink:href="#id66">June</textPath></text><line stroke="#e1ed5e" stroke-width="0.3" x1="101.45913802915013" x2="101.54496967792366" y1="184.9874750549273" y2="189.98673829345242" /><path d="M 101.47630435890484 185.9873277026323 a86.0,86.0 0 0,1 -42.54439059252881,-10.42667462771756" fill="none" id="id67" stroke="none" /><text fill="#e1ed5e" style="font-size:6.75px; font-family:Arial;" text-anchor="middle"><textPath startOffset="22.145653131862474" xlink:href="#id67">July</textPath></text><path d="M 91.92203290615298 119.3841803445677 l -21.39323868098956 51.33598489928889 a76.61523178807947,76.61523178807947 0 0,0 -1.209663027076884,-0.5163332152492344 l 22.271336783236872 -50.96117703438025" fill="red" stroke="none" /><path d="M 91.26138138417905 119.09545874513695 l -24.074604928354418 52.607356542893875 a78.8543046357616,78.8543046357616 0 0,0 -1.2260390677805646,-0.5738481900629897 l 24.974132710006472 -52.18633212126036" fill="red" stroke="none" /><line stroke="#e1ed5e" stroke-width="0.3" x1="58.13341422392154" x2="55.67067388415222" y1="173.97424548756322" y2="178.32567169271397" /><path d="M 57.64086615596768 174.84453072859336 a86.0,86.0 0 0,1 -31.369924170532247,-30.572349798747897" fill="none" id="id68" stroke="none" /><text fill="#e1ed5e" style="font-size:6.75px; font-family:Arial;" text-anchor="middle"><textPath startOffset="22.145653131862474" xlink:href="#id68">August</textPath></text><path d="M 89.34428304082925 118.09573695890944 l -28.410540713656577 48.24730926925125 a76.99072847682119,76.99072847682119 0 0,0 -1.1331101057603197,-0.6804000616113602 l 29.234583575974323 -47.75249520710396" fill="red" stroke="none" /><path d="M 85.34317274990678 115.03919595460226 l -30.701685160294577 31.502633645302616 a64.9887417218543,64.9887417218543 0 0,0 -0.7922687133991292,-0.785497226623493 l 31.23794579382367 -30.970956408450466" fill="red" stroke="none" /><line stroke="#e1ed5e" stroke-width="0.3" x1="26.387840678322732" x2="22.057713659400534" y1="142.50000000000003" y2="145.00000000000006" /><path d="M 25.521815274538284 143.00000000000003 a86.0,86.0 0 0,1 -11.493303480769212,-40.785679425670985" fill="none" id="id69" stroke="none" /><text fill="#e1ed5e" style="font-size:6.75px; font-family:Arial;" text-anchor="middle"><textPath startOffset="21.40746469413373" xlink:href="#id69">September</textPath></text><path d="M 81.1358732173502 109.22738970284198 l -15.64098459064739 7.650789343018642 a38.41192052980132,38.41192052980132 0 0,0 -0.2846519798110749,-0.5948131584742941 l 15.770015828418378 -7.381163682479245" fill="red" stroke="none" /><path d="M 79.22317932658666 103.0534771498775 l -24.395564936398582 3.5853079382336435 a45.657615894039736,45.657615894039736 0 0,0 -0.10730731930413062,-0.77642230740339 l 24.453516772257924 -3.165997322630168" fill="red" stroke="none" /><path d="M 79.13060592940153 102.33845913500099 l -22.831946360681233 2.5583672125971 a43.97483443708609,43.97483443708609 0 0,0 -0.07762104302845821,-0.7509131791664707 l 22.872499796191356 -2.1660495111476976" fill="red" stroke="none" /><path d="M 79.0935383218832 101.97986365728391 l -23.426313350578564 2.2184962305459477 a44.53112582781457,44.53112582781457 0 0,0 -0.06553789412041984,-0.7616496730484307 l 23.460944867396723 -1.816025510121855" fill="red" stroke="none" /><path d="M 79.00696218219943 100.54070618675478 l -29.084394115787283 0.7491108229741568 a50.09403973509934,50.09403973509934 0 0,0 -0.014762399590466864,-0.8598357673373995 l 29.092967946976415 -0.24972813966770488" fill="red" stroke="none" /><line stroke="#e1ed5e" stroke-width="0.3" x1="15.003131293944662" x2="10.003315487706104" y1="100.72959589197737" y2="100.7725132973878" /><path d="M 14.003168132696942 100.73817937305945 a86.0,86.0 0 0,1 10.791469493833604,-42.45332614584628" fill="none" id="id70" stroke="none" /><text fill="#e1ed5e" style="font-size:6.75px; font-family:Arial;" text-anchor="middle"><textPath startOffset="22.145653131862435" xlink:href="#id70">October</textPath></text><path d="M 79.00077361379809 99.81974689727619 l -30.27504360447785 -0.25987483750314067 a51.27615894039735,51.27615894039735 0 0,0 0.01511076271239626,-0.8801261727298701 l 30.26612141016679 0.7795479262020631" fill="red" stroke="none" /><path d="M 79.06263194458094 98.37931529534042 l -32.224134676022445 -2.494351823595283 a53.320529801324504,53.320529801324504 0 0,0 0.07847354342837937,-0.9119815260673115 l 32.17656750989632 3.0471543970382755" fill="red" stroke="none" /><path d="M 79.22317932658666 96.9465228501225 l -22.579313062961123 -3.3183814589065963 a43.821854304635764,43.821854304635764 0 0,0 0.11577005183597287,-0.7433267806185438 l 22.519021518986882 3.7054964214565898" fill="red" stroke="none" /><path d="M 79.2786578344484 96.59031103205396 l -22.73858540948279 -3.741625576083832 a44.04437086092715,44.04437086092715 0 0,0 0.12916574370999595,-0.744993685258598 l 22.67100484828056 4.131412294263023" fill="red" stroke="none" /><path d="M 79.48165901384962 95.52812308129327 l -24.499714435780874 -5.339598731409419 a46.074834437086096,46.074834437086096 0 0,0 0.17506054017183223,-0.7713490408344807 l 24.404443034051383 5.759382106182907" fill="red" stroke="none" /><path d="M 79.83685265289637 94.1308016681162 l -24.31595451594419 -7.078019975073112 a46.32516556291391,46.32516556291391 0 0,0 0.22881031660126464,-0.7616351274432451 l 24.190867879339294 7.494392706107081" fill="red" stroke="none" /><line stroke="#e1ed5e" stroke-width="0.3" x1="26.387840678322718" x2="22.05771365940052" y1="57.49999999999999" y2="54.99999999999999" /><path d="M 25.521815274538284 56.99999999999999 a86.0,86.0 0 0,1 29.574782752854787,-30.34633250058573" fill="none" id="id71" stroke="none" /><text fill="#e1ed5e" style="font-size:6.75px; font-family:Arial;" text-anchor="middle"><textPath startOffset="21.40746469413373" xlink:href="#id71">November</textPath></text><path d="M 83.8745106332314 86.54754324733833 l -19.265154183874547 -16.071676809140172 a46.088741721854305,46.088741721854305 0 0,0 0.5120359049916705,-0.603177008584218 l 18.98642371537576 16.40002060017395" fill="red" stroke="none" /><path d="M 84.10781606972428 86.27271002978789 l -21.470235243551304 -18.545477840551474 a49.37086092715232,49.37086092715232 0 0,0 0.5595104125476799,-0.6366201415694599 l 21.148713767045034 18.911310259932232" fill="red" stroke="none" /><path d="M 84.34580500576568 86.00192230759919 l -23.26358514374953 -20.802441285925454 a52.20794701986755,52.20794701986755 0 0,0 0.6031318086355202,-0.6629475108321541 l 22.903055634272146 21.198726372315264" fill="red" stroke="none" /><path d="M 84.58840730492382 85.73525988315684 l -24.066579850986507 -22.275667016898126 a53.793377483443706,53.793377483443706 0 0,0 0.633081877555034,-0.6723110151884972 l 23.6806421396952 22.685519492031133" fill="red" stroke="none" /><path d="M 85.08716467003674 85.21462403516908 l -22.635906341904484 -22.44243821946521 a52.87549668874172,52.87549668874172 0 0,0 0.6445978275932644,-0.6390884775566779 l 22.247316594181243 22.82770670725056" fill="red" stroke="none" /><path d="M 85.34317274990677 84.96080404539775 l -17.05433475391642 -17.49924986240804 a45.43509933774834,45.43509933774834 0 0,0 0.5632384030980553,-0.5395696491998063 l 16.75142386495307 17.789431641913417" fill="red" stroke="none" /><path d="M 85.60350026404147 84.71141617570332 l -19.249359580728655 -20.44215280877814 a49.07880794701987,49.07880794701987 0 0,0 0.6183234020086483,-0.5723109098668091 l 18.895606407406053 20.769581464777314" fill="red" stroke="none" /><path d="M 85.86807049272753 84.46653392183569 l -19.06406649424771 -20.954748610079935 a49.32913907284768,49.32913907284768 0 0,0 0.6312602316936615,-0.564476791724223 l 18.70154123573066 21.27892093168756" fill="red" stroke="none" /><path d="M 86.13680546590413 84.22622945171909 l -18.637274771003064 -21.205797492059766 a49.2317880794702,49.2317880794702 0 0,0 0.6395924779069643,-0.5524647490562412 l 18.27050281333325 21.522606373580718" fill="red" stroke="none" /><path d="M 86.40962598614128 83.9905735841838 l -20.82657315766164 -24.53365081205211 a53.18145695364238,53.18145695364238 0 0,0 0.7010472491158013,-0.5848385488218303 l 20.402351574383932 24.887551544785822" fill="red" stroke="none" /><path d="M 86.68645165197937 83.75963576809568 l -17.94243105180264 -21.886848484718733 a49.30132450331126,49.30132450331126 0 0,0 0.659109946417652,-0.5309323168890071 l 17.56407033502974 22.191629095401137" fill="red" stroke="none" /><path d="M 88.4268655584334 82.4767994020092 l -17.650946105250245 -26.72578210408795 a53.02847682119205,53.02847682119205 0 0,0 0.7638988637112317,-0.49515001429338085 l 17.189561609281988 27.024845960085237" fill="red" stroke="none" /><line stroke="#e1ed5e" stroke-width="0.3" x1="56.869717070023135" x2="54.33264160355391" y1="26.7553504044142" y2="22.446841604673864" /><path d="M 56.362301976729285 25.89364864446614 a86.0,86.0 0 0,1 42.16139366436587,-11.88097634709845" fill="none" id="id72" stroke="none" /><text fill="#e1ed5e" style="font-size:6.75px; font-family:Arial;" text-anchor="middle"><textPath startOffset="22.145653131862474" xlink:href="#id72">December</textPath></text><path d="M 89.34428304082924 81.90426304109057 l -13.160868959505603 -22.35003273401728 a46.937086092715234,46.937086092715234 0 0,0 0.6978148483252655,-0.4028835905251078 l 12.775261643319936 22.572663221818562" fill="red" stroke="none" /><path d="M 89.97174638481275 81.54914285379989 l -12.990241106825348 -23.90058051521021 a48.202649006622515,48.202649006622515 0 0,0 0.7304105725058123,-0.388902489320234 l 12.578041718532972 24.12005347225302" fill="red" stroke="none" /><path d="M 92.25597844496254 80.48000691201159 l -10.277496156486812 -25.906004071740902 a48.87019867549669,48.87019867549669 0 0,0 0.7824531586739985,-0.30266969078339434 l 9.831270735319285 26.078613650662337" fill="red" stroke="none" /><path d="M 95.70440661134978 79.44403061299748 l -5.885816371600851 -28.165762027621323 a49.77417218543046,49.77417218543046 0 0,0 0.8378735617779034,-0.1675981783732464 l 5.40144632429197 28.262649602657437" fill="red" stroke="none" /><path d="M 98.5590905019552 79.04949213459386 l -1.210936525178055 -17.60675131205323 a38.648344370860926,38.648344370860926 0 0,0 0.6622773810753825,-0.039840962665678915 l 0.9085147919701888 17.624944252543607" fill="red" stroke="none" /></svg>