<?xml version="1.0" encoding="utf-8" ?>
<svg baseProfile="full" height="200mm" version="1.1" viewBox="0,0,200,200" width="200mm" xmlns="http://www.w3.org/2000/svg" xmlns:ev="http://www.w3.org/2001/xml-events" xmlns:xlink="http://www.w3.org/1999/xlink"><defs /><rect fill="#1a1a1a" height="200" width="200" x="0" y="0" /><rect fill="#1a1a1a" height="200" width="180" x="10" y="0" /><text alignment-baseline="middle" fill="#e1ed5e" style="dominant-baseline: central; font-size:9.0px; font-family:Arial;" text-anchor="middle" x="100.0" y="100.0">2022</text><line stroke="#e1ed5e" stroke-width="0.3" x1="100.0" x2="100.0" y1="15.0" y2="10.0" /><path d="M 100.0 14.0 a86.0,86.0 0 0,1 42.46469731375804,11.215312516191453" fill="none" id="id37" stroke="none" /><text fill="#e1ed5e" style="font-size:6.75px; font-family:Arial;" text-anchor="middle"><textPath startOffset="22.20632615414155" xlink:href="#id37">January</textPath></text><line stroke="#e1ed5e" stroke-width="0.3" x1="143.23703022742887" x2="145.7803849466894" y1="26.81831364943548" y2="22.513508569990506" /><path d="M 143.74570117128098 25.957352633546492 a86.0,86.0 0 0,1 28.547481713284135,27.462654790039103" fill="none" id="id38" stroke="none" /><text fill="#e1ed5e" style="font-size:6.75px; font-family:Arial;" text-anchor="middle"><textPath startOffset="19.985693538727396" xlink:href="#id38">February</textPath></text><line stroke="#e1ed5e" stroke-width="0.3" x1="172.23445277983987" x2="176.4835382374775" y1="55.19839476539836" y2="52.563006222186495" /><path d="M 173.08426987136738 54.67131705675599 a86.0,86.0 0 0,1 12.851231095245387,41.99856678651699" fill="none" id="id39" stroke="none" /><text fill="#e1ed5e" style="font-size:6.75px; font-family:Arial;" text-anchor="middle"><textPath startOffset="22.20632615414155" xlink:href="#id39">March</textPath></text><line stroke="#e1ed5e" stroke-width="0.3" x1="184.98032266829074" x2="189.97916517819016" y1="98.17113171792111" y2="98.06355123074" /><path d="M 185.9800911702706 98.14961562048488 a86.0,86.0 0 0,1 -9.607161424134198,41.387399972396054" fill="none" id="id40" stroke="none" /><text fill="#e1ed5e" style="font-size:6.75px; font-family:Arial;" text-anchor="middle"><textPath startOffset="21.466115282336823" xlink:href="#id40">April</textPath></text><line stroke="#e1ed5e" stroke-width="0.3" x1="174.80103733775053" x2="179.2010983576182" y1="140.37084112569926" y2="142.7455964860345" /><path d="M 175.68104954172406 140.8457921977663 a86.0,86.0 0 0,1 -30.038265399797805,32.042727171017184" fill="none" id="id41" stroke="none" /><text fill="#e1ed5e" style="font-size:6.75px; font-family:Arial;" text-anchor="middle"><textPath startOffset="22.206326154141568" xlink:href="#id41">May</textPath></text><line stroke="#e1ed5e" stroke-width="0.3" x1="143.8653032363475" x2="146.44561519142675" y1="172.8068346515853" y2="177.08958963109032" /><path d="M 144.38136562736335 173.6633856474863 a86.0,86.0 0 0,1 -40.68145358897372,12.25698825130547" fill="none" id="id42" stroke="none" /><text fill="#e1ed5e" style="font-size:6.75px; font-family:Arial;" text-anchor="middle"><textPath startOffset="21.466115282336833" xlink:href="#id42">June</textPath></text><path d="M 104.13013068566511 120.58985236759428 l 9.071196646342536 45.22244305582581 a67.12326923076924,67.12326923076924 0 0,0 -1.134806399654558,0.21748834735579065 l -8.291422632116273 -45.371888601530074" fill="red" stroke="none" /><path d="M 103.41894727170886 120.7198165907248 l 7.388871046050802 44.77871131664717 a66.38423076923077,66.38423076923077 0 0,0 -1.129050783462153,0.17633451227466834 l -6.616984398980132 -44.89926413626894" fill="red" stroke="none" /><path d="M 102.34483914955558 120.86867818915974 l 5.143314488429047 45.77464296645308 a67.06269230769232,67.06269230769232 0 0,0 -1.148264673224493,0.11902232835070692 l -4.354617218598952 -45.85639466325954" fill="red" stroke="none" /><path d="M 101.98527174616119 120.90594882070398 l 4.17823345961309 43.99898151803545 a65.19692307692307,65.19692307692307 0 0,0 -1.1181448719962597,0.09647824446408805 l -3.4202442698752886 -44.0643840147782" fill="red" stroke="none" /><path d="M 101.26447882468166 120.96189622390904 l 2.686044826429547 44.52790494024983 a65.60884615384614,65.60884615384614 0 0,0 -1.1278845847220402,0.05829874987332077 l -1.9191721732940272 -44.56754349688535" fill="red" stroke="none" /><line stroke="#e1ed5e" stroke-width="0.3" x1="102.19456741930631" x2="102.32365962044197" y1="184.97166512339345" y2="189.96999836594603" /><path d="M 102.22038585953345 185.97133177190398 a86.0,86.0 0 0,1 -42.740103519485714,-10.115201625700543" fill="none" id="id43" stroke="none" /><text fill="#e1ed5e" style="font-size:6.75px; font-family:Arial;" text-anchor="middle"><textPath startOffset="22.20632615414155" xlink:href="#id43">July</textPath></text><path d="M 100.54218724476979 120.99299961872073 l 1.167683645034025 45.21165437116414 a66.22673076923077,66.22673076923077 0 0,0 -1.1398576241250267,0.019623682711357834 l -0.3892663310163306 -45.22505553115466" fill="red" stroke="none" /><path d="M 99.81925306533755 120.99922214144158 l -0.3910390413370273 45.431009440618794 a66.4326923076923,66.4326923076923 0 0,0 -1.1434025194741562,-0.01968471129958146 l 1.1730012507038514 -45.41754725204005" fill="red" stroke="none" /><path d="M 99.45781275523022 120.99299961872073 l -1.188328467046382 46.011003202800055 a67.02634615384616,67.02634615384616 0 0,0 -1.1531073698569134,-0.03971534933117721 l 1.9801561885779386 -45.98373105504278" fill="red" stroke="none" /><path d="M 98.73552117531835 120.96189622390904 l -2.721790670127248 45.12048162196419 a66.2025,66.2025 0 0,0 -1.136908896644423,-0.07840789391241103 l 3.498062327550601 -45.0669453835355" fill="red" stroke="none" /><path d="M 97.2962882734958 120.8252237178851 l -6.9568582501204075 53.58490256640433 a75.03461538461539,75.03461538461539 0 0,0 -1.279416687643977,-0.17731549483603865 l 7.878203528951215 -53.45721250607569" fill="red" stroke="none" /><path d="M 96.93821686468263 120.77559828337769 l -6.5993202655071155 44.779404915403305 a66.26307692307692,66.26307692307692 0 0,0 -1.1269902211368175,-0.1760126948170555 l 7.369146350252451 -44.659173913239144" fill="red" stroke="none" /><path d="M 93.76903079525671 120.05430185196036 l -13.484057011726204 43.39828052694422 a66.44480769230769,66.44480769230769 0 0,0 -1.0893109056189918,-0.3487629526745861 l 14.229089262436137 -43.159744727609926" fill="red" stroke="none" /><path d="M 93.08242187328487 119.8279376855182 l -16.067405502781785 46.054198339555526 a69.77653846153846,69.77653846153846 0 0,0 -1.130647198353766,-0.40540985882915564 l 16.85777226176528 -45.77080093968641" fill="red" stroke="none" /><path d="M 91.40352486487194 119.15986991738527 l -18.533669757677036 41.307942623808906 a66.27519230769231,66.27519230769231 0 0,0 -1.0368343695117075,-0.4759598055283665 l 19.241972122956163 -40.98279574794646" fill="red" stroke="none" /><line stroke="#e1ed5e" stroke-width="0.3" x1="58.666819895761336" x2="56.23545636021788" y1="174.27360380694188" y2="178.64263932499728" /><path d="M 58.180547188652646 175.14741091055294 a86.0,86.0 0 0,1 -31.652253787137756,-30.449443065178592" fill="none" id="id44" stroke="none" /><text fill="#e1ed5e" style="font-size:6.75px; font-family:Arial;" text-anchor="middle"><textPath startOffset="22.20632615414155" xlink:href="#id44">August</textPath></text><path d="M 89.7882731507175 118.34994917583269 l -21.798109235968404 39.17008381764287 a65.82692307692308,65.82692307692308 0 0,0 -0.9853702113816004,-0.5595189226052847 l 22.46912821427121 -38.78906172924295" fill="red" stroke="none" /><path d="M 89.1626897886671 117.98757091392108 l -23.727457068466375 39.382402856729136 a66.97788461538462,66.97788461538462 0 0,0 -0.9824086479082039,-0.6034756303175671 l 24.401844916306885 -38.96813875958319" fill="red" stroke="none" /><path d="M 87.65650970185807 116.9893568818739 l -37.030470894425804 50.968070645621694 a84.0,84.0 0 0,0 -1.1624601183257428,-0.8599602050409332 l 37.902315983170105 -50.323100491841" fill="red" stroke="none" /><path d="M 87.07902340077011 116.55440617244103 l -27.044597943465003 34.64964553477849 a64.95461538461538,64.95461538461538 0 0,0 -0.8754722475257716,-0.6955281013733612 l 27.637027683708133 -34.178983519400006" fill="red" stroke="none" /><path d="M 86.51685102203217 116.09983520530335 l -29.636998618879304 35.388676230118705 a67.15961538461539,67.15961538461539 0 0,0 -0.8799013701006826,-0.7498710366523686 l 30.241765465557044 -34.87328080324338" fill="red" stroke="none" /><path d="M 85.70375840098266 115.38237550388516 l -32.99132676696308 35.49778962435036 a69.46153846153845,69.46153846153845 0 0,0 -0.868812240091913,-0.8215162015326903 l 33.59747484144581 -34.92463878607174" fill="red" stroke="none" /><path d="M 85.18274418774928 114.88116024355367 l -37.27109731235375 37.43184153570805 a73.82307692307693,73.82307692307693 0 0,0 -0.8927648796124715,-0.9043661096218173 l 37.90990281702175 -36.78473493210557" fill="red" stroke="none" /><path d="M 83.95833913139862 113.55231037782056 l -37.66705369338903 31.82186725253636 a70.30961538461538,70.30961538461538 0 0,0 -0.7730843542026022,-0.931229906471042 l 38.20923404748517 -31.16877608895156" fill="red" stroke="none" /><path d="M 83.06392112726016 112.41649034213515 l -35.66347378009638 26.146263316611503 a65.22115384615384,65.22115384615384 0 0,0 -0.6560012217565268,-0.9111283215315611 l 36.10825479422852 -25.528501389628804" fill="red" stroke="none" /><path d="M 82.44556493220864 111.52570212397912 l -37.907452187736396 24.888867144261827 a66.34788461538461,66.34788461538461 0 0,0 -0.6185996729958686,-0.9600804297866397 l 38.33025672410931 -24.23266511455374" fill="red" stroke="none" /><path d="M 82.05923443525364 110.91462005526583 l -37.44789796918404 22.782170399972173 a64.83346153846153,64.83346153846153 0 0,0 -0.5718284272193433,-0.9584173355293023 l 37.83450727210162 -22.13419097055676" fill="red" stroke="none" /><line stroke="#e1ed5e" stroke-width="0.3" x1="26.63291911575756" x2="22.317208475507996" y1="142.92168965132927" y2="145.44649492493687" /><path d="M 25.769776987707644 143.4266507060508 a86.0,86.0 0 0,1 -11.730757126820373,-40.83630448921669" fill="none" id="id45" stroke="none" /><text fill="#e1ed5e" style="font-size:6.75px; font-family:Arial;" text-anchor="middle"><textPath startOffset="21.46611528233685" xlink:href="#id45">September</textPath></text><path d="M 81.18737489456691 109.33194174019688 l -39.875529598477584 19.78012728085577 a65.51192307692307,65.51192307692307 0 0,0 -0.49242112907615937,-1.0145333762175288 l 40.21010398416846 -19.090804948672957" fill="red" stroke="none" /><path d="M 80.87730276802145 108.67885076344099 l -41.02921788792011 18.621141916867533 a66.05711538461539,66.05711538461539 0 0,0 -0.4610123417404721,-1.0394611269209566 l 41.34367131439186 -17.91213245345388" fill="red" stroke="none" /><path d="M 79.07016306316243 101.71520430193888 l -44.38735418066244 3.6375525080349944 a65.53615384615384,65.53615384615384 0 0,0 -0.08246146269137807,-1.1251211424866476 l 44.44339220201815 -2.8729582290515863" fill="red" stroke="none" /><path d="M 79.0235259727143 100.99374915477108 l -45.53911832577467 2.1573911938866748 a66.5901923076923,66.5901923076923 0 0,0 -0.04438669834933634,-1.145423456535809 l 45.56950715697521 -1.3731904903368688" fill="red" stroke="none" /><line stroke="#e1ed5e" stroke-width="0.3" x1="15.007084014347285" x2="10.007500721073583" y1="101.09737516637583" y2="101.16192664675087" /><path d="M 14.007167355692545 101.11028546245083 a86.0,86.0 0 0,1 10.666146001902534,-42.60595125391555" fill="none" id="id46" stroke="none" /><text fill="#e1ed5e" style="font-size:6.75px; font-family:Arial;" text-anchor="middle"><textPath startOffset="22.20632615414155" xlink:href="#id46">October</textPath></text><path d="M 79.16333360222342 97.38593545837743 l -48.26493206946516 -6.055078346893031 a69.64326923076922,69.64326923076922 0 0,0 0.1594631915860875,-1.18818599828749 l 48.153552878821245 6.88498268724518" fill="red" stroke="none" /><path d="M 79.26566170972629 96.67025291283419 l -48.0757532241981 -7.720530890376573 a69.69173076923076,69.69173076923076 0 0,0 0.20040732802798292,-1.1828153944295685 l 47.9357340346499 8.546932073121969" fill="red" stroke="none" /><path d="M 79.3925641242962 95.95851677861259 l -44.83306193496867 -8.792557631453032 a66.68711538461538,66.68711538461538 0 0,0 0.23061263202994126,-1.1245490941872567 l 44.675070007023734 9.562982381803693" fill="red" stroke="none" /><line stroke="#e1ed5e" stroke-width="0.3" x1="26.266209847984243" x2="21.928928074336255" y1="57.711370442889674" y2="55.22380399835377" /><path d="M 25.398753493254645 57.213857153982495 a86.0,86.0 0 0,1 29.58750427330803,-30.492523968695096" fill="none" id="id47" stroke="none" /><text fill="#e1ed5e" style="font-size:6.75px; font-family:Arial;" text-anchor="middle"><textPath startOffset="21.46611528233685" xlink:href="#id47">November</textPath></text><line stroke="#e1ed5e" stroke-width="0.3" x1="56.762969772571076" x2="54.21961505331055" y1="26.818313649435495" y2="22.513508569990535" /><path d="M 56.25429882871897 25.957352633546506 a86.0,86.0 0 0,1 42.265352541879196,-11.944610805530505" fill="none" id="id48" stroke="none" /><text fill="#e1ed5e" style="font-size:6.75px; font-family:Arial;" text-anchor="middle"><textPath startOffset="22.20632615414155" xlink:href="#id48">December</textPath></text></svg>