<?xml version="1.0" encoding="utf-8" ?>
<svg baseProfile="full" height="200mm" version="1.1" viewBox="0,0,200,200" width="200mm" xmlns="http://www.w3.org/2000/svg" xmlns:ev="http://www.w3.org/2001/xml-events" xmlns:xlink="http://www.w3.org/1999/xlink"><defs /><rect fill="#1a1a1a" height="200" width="200" x="0" y="0" /><rect fill="#1a1a1a" height="200" width="180" x="10" y="0" /><text alignment-baseline="middle" fill="#e1ed5e" style="dominant-baseline: central; font-size:9.0px; font-family:Arial;" text-anchor="middle" x="100.0" y="100.0">2021</text><line stroke="#e1ed5e" stroke-width="0.3" x1="100.0" x2="100.0" y1="15.0" y2="10.0" /><path d="M 100.0 14.0 a86.0,86.0 0 0,1 42.46469731375804,11.215312516191453" fill="none" id="id25" stroke="none" /><text fill="#e1ed5e" style="font-size:6.75px; font-family:Arial;" text-anchor="middle"><textPath startOffset="22.20632615414155" xlink:href="#id25">January</textPath></text><line stroke="#e1ed5e" stroke-width="0.3" x1="143.23703022742887" x2="145.7803849466894" y1="26.81831364943548" y2="22.513508569990506" /><path d="M 143.74570117128098 25.957352633546492 a86.0,86.0 0 0,1 28.547481713284135,27.462654790039103" fill="none" id="id26" stroke="none" /><text fill="#e1ed5e" style="font-size:6.75px; font-family:Arial;" text-anchor="middle"><textPath startOffset="19.985693538727396" xlink:href="#id26">February</textPath></text><line stroke="#e1ed5e" stroke-width="0.3" x1="172.23445277983987" x2="176.4835382374775" y1="55.19839476539836" y2="52.563006222186495" /><path d="M 173.08426987136738 54.67131705675599 a86.0,86.0 0 0,1 12.851231095245387,41.99856678651699" fill="none" id="id27" stroke="none" /><text fill="#e1ed5e" style="font-size:6.75px; font-family:Arial;" text-anchor="middle"><textPath startOffset="22.20632615414155" xlink:href="#id27">March</textPath></text><path d="M 120.96714384426684 98.82574320788733 l 40.397850138464655 -2.262465992706626 a61.461154805294456,61.461154805294456 0 0,0 0.050065647262908936,1.0568066844912511 l -40.430809393961056 1.5667482015923753" fill="red" stroke="none" /><line stroke="#e1ed5e" stroke-width="0.3" x1="184.98032266829074" x2="189.97916517819016" y1="98.17113171792111" y2="98.06355123074" /><path d="M 185.9800911702706 98.14961562048488 a86.0,86.0 0 0,1 -9.607161424134198,41.387399972396054" fill="none" id="id28" stroke="none" /><text fill="#e1ed5e" style="font-size:6.75px; font-family:Arial;" text-anchor="middle"><textPath startOffset="21.466115282336823" xlink:href="#id28">April</textPath></text><path d="M 120.99513854157772 99.54816195383933 l 24.333901221602247 -0.5236918233076447 a45.33953577594475,45.33953577594475 0 0,0 0.010076156702495965,0.7804094409225958 l -24.339310385422458 0.10474612432458619" fill="red" stroke="none" /><path d="M 120.5718875245553 104.21870165774334 l 13.294972006565661 2.7264158612962404 a34.571647803568005,34.571647803568005 0 0,0 -0.12456652209223662,0.5819333208844116 l -13.246071445748981 -2.9548630015968214" fill="red" stroke="none" /><path d="M 120.32669344350535 105.2749913415812 l 38.48541421204638 9.987370907616825 a60.76021484749664,60.76021484749664 0 0,0 -0.2714301255585985,1.0100924716887023 l -38.307796010146006 -10.648354312481075" fill="red" stroke="none" /><line stroke="#e1ed5e" stroke-width="0.3" x1="174.80103733775053" x2="179.2010983576182" y1="140.37084112569926" y2="142.7455964860345" /><path d="M 175.68104954172406 140.8457921977663 a86.0,86.0 0 0,1 -30.038265399797805,32.042727171017184" fill="none" id="id29" stroke="none" /><text fill="#e1ed5e" style="font-size:6.75px; font-family:Arial;" text-anchor="middle"><textPath startOffset="22.206326154141568" xlink:href="#id29">May</textPath></text><path d="M 114.55890576462653 115.13401014063108 l 34.359911302935004 35.717192933087304 a70.56128908497985,70.56128908497985 0 0,0 -0.8825677200864402,0.8345228664412889 l -33.74000774845776 -36.30335043627451" fill="red" stroke="none" /><path d="M 114.29624159901734 115.38237550388516 l 42.88872479705202 46.14712651165547 a84.0,84.0 0 0,0 -1.0676018021325442,0.9752289336536681 l -42.088023445452606 -46.878548211895726" fill="red" stroke="none" /><line stroke="#e1ed5e" stroke-width="0.3" x1="143.8653032363475" x2="146.44561519142675" y1="172.8068346515853" y2="177.08958963109032" /><path d="M 144.38136562736335 173.6633856474863 a86.0,86.0 0 0,1 -40.68145358897372,12.25698825130547" fill="none" id="id30" stroke="none" /><text fill="#e1ed5e" style="font-size:6.75px; font-family:Arial;" text-anchor="middle"><textPath startOffset="21.466115282336833" xlink:href="#id30">June</textPath></text><path d="M 108.59647513512805 119.15986991738527 l 16.375023612472955 36.496740510192936 a61.00191828122003,61.00191828122003 0 0,0 -0.9617368547204364,0.42159717426857374 l -15.744366083094764 -36.77320223775597" fill="red" stroke="none" /><path d="M 105.18746579009965 120.34920634021253 l 15.550456148453348 61.00077642019972 a83.95165931325532,83.95165931325532 0 0,0 -1.4033787734416805,0.3449163584760437 l -14.498124090268456 -61.259414036989796" fill="red" stroke="none" /><line stroke="#e1ed5e" stroke-width="0.3" x1="102.19456741930631" x2="102.32365962044197" y1="184.97166512339345" y2="189.96999836594603" /><path d="M 102.22038585953345 185.97133177190398 a86.0,86.0 0 0,1 -42.740103519485714,-10.115201625700543" fill="none" id="id31" stroke="none" /><text fill="#e1ed5e" style="font-size:6.75px; font-family:Arial;" text-anchor="middle"><textPath startOffset="22.20632615414155" xlink:href="#id31">July</textPath></text><line stroke="#e1ed5e" stroke-width="0.3" x1="58.666819895761336" x2="56.23545636021788" y1="174.27360380694188" y2="178.64263932499728" /><path d="M 58.180547188652646 175.14741091055294 a86.0,86.0 0 0,1 -31.652253787137756,-30.449443065178592" fill="none" id="id32" stroke="none" /><text fill="#e1ed5e" style="font-size:6.75px; font-family:Arial;" text-anchor="middle"><textPath startOffset="22.20632615414155" xlink:href="#id32">August</textPath></text><line stroke="#e1ed5e" stroke-width="0.3" x1="26.63291911575756" x2="22.317208475507996" y1="142.92168965132927" y2="145.44649492493687" /><path d="M 25.769776987707644 143.4266507060508 a86.0,86.0 0 0,1 -11.730757126820373,-40.83630448921669" fill="none" id="id33" stroke="none" /><text fill="#e1ed5e" style="font-size:6.75px; font-family:Arial;" text-anchor="middle"><textPath startOffset="21.46611528233685" xlink:href="#id33">September</textPath></text><path d="M 80.58989483394504 108.01547362559985 l -32.86276389710359 13.570798047102294 a56.55457510070976,56.55457510070976 0 0,0 -0.3638273927566723,-0.9029897515547392 l 33.09149390411765 -13.003108927704748" fill="red" stroke="none" /><path d="M 79.50377843672027 104.57218783832718 l -18.25905485130847 4.073132614845848 a39.707845770189905,39.707845770189905 0 0,0 -0.14307296763728897,-0.668389273357927 l 18.3264618576702 -3.7582295220717574" fill="red" stroke="none" /><line stroke="#e1ed5e" stroke-width="0.3" x1="15.007084014347285" x2="10.007500721073583" y1="101.09737516637583" y2="101.16192664675087" /><path d="M 14.007167355692545 101.11028546245083 a86.0,86.0 0 0,1 10.666146001902534,-42.60595125391555" fill="none" id="id34" stroke="none" /><text fill="#e1ed5e" style="font-size:6.75px; font-family:Arial;" text-anchor="middle"><textPath startOffset="22.20632615414155" xlink:href="#id34">October</textPath></text><path d="M 79.03285615573316 98.82574320788736 l -41.15802473784437 -2.3050392775155752 a62.22252062152312,62.22252062152312 0 0,0 0.06909487652903012,-1.0688671577878344 l 41.112249270310926 3.0131654995564214" fill="red" stroke="none" /><line stroke="#e1ed5e" stroke-width="0.3" x1="26.266209847984243" x2="21.928928074336255" y1="57.711370442889674" y2="55.22380399835377" /><path d="M 25.398753493254645 57.213857153982495 a86.0,86.0 0 0,1 29.58750427330803,-30.492523968695096" fill="none" id="id35" stroke="none" /><text fill="#e1ed5e" style="font-size:6.75px; font-family:Arial;" text-anchor="middle"><textPath startOffset="21.46611528233685" xlink:href="#id35">November</textPath></text><path d="M 81.78341655067845 89.55222093294921 l -35.87405441986091 -20.57488968009656 a62.35545751007098,62.35545751007098 0 0,0 0.5420183577352464,-0.9264850712016321 l 35.51457638765534 21.189354163652084" fill="red" stroke="none" /><path d="M 85.05521093208273 85.24692304244772 l -30.55754971704014 -30.165556740945682 a63.93861500095914,63.93861500095914 0 0,0 0.7799421023871868,-0.7765927831347523 l 30.03377181448564 30.687085374730543" fill="red" stroke="none" /><path d="M 85.31137513191541 84.99185889309783 l -37.61617916534228 -38.43443003589951 a74.77901400345291,74.77901400345291 0 0,0 0.9276755320971624,-0.8924231268810998 l 36.949020389632686 39.07623624954292" fill="red" stroke="none" /><path d="M 85.57189188830299 84.74124197986013 l -41.515753246778296 -43.90588342645271 a81.42585843084596,81.42585843084596 0 0,0 1.0267107317963884,-0.9542157302269615 l 40.753834631187054 44.61400374275432" fill="red" stroke="none" /><line stroke="#e1ed5e" stroke-width="0.3" x1="56.762969772571076" x2="54.21961505331055" y1="26.818313649435495" y2="22.513508569990535" /><path d="M 56.25429882871897 25.957352633546506 a86.0,86.0 0 0,1 42.265352541879196,-11.944610805530505" fill="none" id="id36" stroke="none" /><text fill="#e1ed5e" style="font-size:6.75px; font-family:Arial;" text-anchor="middle"><textPath startOffset="22.20632615414155" xlink:href="#id36">December</textPath></text></svg>