<?xml version="1.0" encoding="utf-8" ?>
<svg baseProfile="full" height="200mm" version="1.1" viewBox="0,0,200,200" width="200mm" xmlns="http://www.w3.org/2000/svg" xmlns:ev="http://www.w3.org/2001/xml-events" xmlns:xlink="http://www.w3.org/1999/xlink"><defs /><rect fill="#1a1a1a" height="200" width="200" x="0" y="0" /><rect fill="#1a1a1a" height="200" width="180" x="10" y="0" /><text alignment-baseline="middle" fill="#e1ed5e" style="dominant-baseline: central; font-size:9.0px; font-family:Arial;" text-anchor="middle" x="100.0" y="100.0">2019</text><line stroke="#e1ed5e" stroke-width="0.3" x1="100.0" x2="100.0" y1="15.0" y2="10.0" /><path d="M 100.0 14.0 a86.0,86.0 0 0,1 42.46469731375804,11.215312516191453" fill="none" id="id1" stroke="none" /><text fill="#e1ed5e" style="font-size:6.75px; font-family:Arial;" text-anchor="middle"><textPath startOffset="22.20632615414155" xlink:href="#id1">January</textPath></text><line stroke="#e1ed5e" stroke-width="0.3" x1="143.23703022742887" x2="145.7803849466894" y1="26.81831364943548" y2="22.513508569990506" /><path d="M 143.74570117128098 25.957352633546492 a86.0,86.0 0 0,1 28.547481713284135,27.462654790039103" fill="none" id="id2" stroke="none" /><text fill="#e1ed5e" style="font-size:6.75px; font-family:Arial;" text-anchor="middle"><textPath startOffset="19.985693538727396" xlink:href="#id2">February</textPath></text><line stroke="#e1ed5e" stroke-width="0.3" x1="172.23445277983987" x2="176.4835382374775" y1="55.19839476539836" y2="52.563006222186495" /><path d="M 173.08426987136738 54.67131705675599 a86.0,86.0 0 0,1 12.851231095245387,41.99856678651699" fill="none" id="id3" stroke="none" /><text fill="#e1ed5e" style="font-size:6.75px; font-family:Arial;" text-anchor="middle"><textPath startOffset="22.20632615414155" xlink:href="#id3">March</textPath></text><line stroke="#e1ed5e" stroke-width="0.3" x1="184.98032266829074" x2="189.97916517819016" y1="98.17113171792111" y2="98.06355123074" /><path d="M 185.9800911702706 98.14961562048488 a86.0,86.0 0 0,1 -9.607161424134198,41.387399972396054" fill="none" id="id4" stroke="none" /><text fill="#e1ed5e" style="font-size:6.75px; font-family:Arial;" text-anchor="middle"><textPath startOffset="21.466115282336823" xlink:href="#id4">April</textPath></text><line stroke="#e1ed5e" stroke-width="0.3" x1="174.80103733775053" x2="179.2010983576182" y1="140.37084112569926" y2="142.7455964860345" /><path d="M 175.68104954172406 140.8457921977663 a86.0,86.0 0 0,1 -30.038265399797805,32.042727171017184" fill="none" id="id5" stroke="none" /><text fill="#e1ed5e" style="font-size:6.75px; font-family:Arial;" text-anchor="middle"><textPath startOffset="22.206326154141568" xlink:href="#id5">May</textPath></text><line stroke="#e1ed5e" stroke-width="0.3" x1="143.8653032363475" x2="146.44561519142675" y1="172.8068346515853" y2="177.08958963109032" /><path d="M 144.38136562736335 173.6633856474863 a86.0,86.0 0 0,1 -40.68145358897372,12.25698825130547" fill="none" id="id6" stroke="none" /><text fill="#e1ed5e" style="font-size:6.75px; font-family:Arial;" text-anchor="middle"><textPath startOffset="21.466115282336833" xlink:href="#id6">June</textPath></text><path d="M 101.98527174616119 120.90594882070398 l 1.4308415988581846 15.067509671713587 a36.135295021511986,36.135295021511986 0 0,0 -0.6197300872420629,0.05347291961545602 l -1.17126719387458 -15.089906843607707" fill="red" stroke="none" /><path d="M 101.62511606390274 120.93702456842531 l 1.145796720838612 14.761760484360718 a35.80616164720344,35.80616164720344 0 0,0 -0.6149064420738475,0.04240754841349749 l -0.8915275179858342 -14.7792963772905" fill="red" stroke="none" /><path d="M 101.26447882468166 120.96189622390904 l 0.9023109498803997 14.958058706796793 a35.985248924400736,35.985248924400736 0 0,0 -0.6186240106104602,0.03197579517331353 l -0.6446988708564598 -14.971374308732308" fill="red" stroke="none" /><path d="M 100.90346689309514 120.98055641714683 l 0.6417835658848867 14.903674295708326 a35.917486170866624,35.917486170866624 0 0,0 -0.6179169891686301,0.021282310497718206 l -0.3851462250416043 -14.912513404632138" fill="red" stroke="none" /><line stroke="#e1ed5e" stroke-width="0.3" x1="102.19456741930631" x2="102.32365962044197" y1="184.97166512339345" y2="189.96999836594603" /><path d="M 102.22038585953345 185.97133177190398 a86.0,86.0 0 0,1 -42.740103519485714,-10.115201625700543" fill="none" id="id7" stroke="none" /><text fill="#e1ed5e" style="font-size:6.75px; font-family:Arial;" text-anchor="middle"><textPath startOffset="22.20632615414155" xlink:href="#id7">July</textPath></text><path d="M 100.54218724476979 120.99299961872073 l 0.3881454169303125 15.028639401293779 a36.03365089121082,36.03365089121082 0 0,0 -0.6201911405913609,0.010677152923113718 l -0.12939458644628357 -15.033094031496052" fill="red" stroke="none" /><path d="M 100.18074693466247 120.99922214144158 l 0.14664164336475147 17.036861233376076 a38.03749231714812,38.03749231714812 0 0,0 -0.6547771560544021,0.0 l 0.14664164336473973 -17.036861233376076" fill="red" stroke="none" /><path d="M 99.81925306533755 120.99922214144158 l -0.14664164336473973 17.036861233376076 a38.03749231714812,38.03749231714812 0 0,0 -0.6546801437531085,-0.011270912389868765 l 0.4398814770105161 -17.031812843707048" fill="red" stroke="none" /><path d="M 99.45781275523022 120.99299961872073 l -0.4395065780244277 17.017297094124345 a38.0229717271051,38.0229717271051 0 0,0 -0.6541393263739772,-0.02252988103044313 l 0.732366256073048 -17.00721041466781" fill="red" stroke="none" /><path d="M 99.09653310690486 120.98055641714683 l -0.7350733249752229 17.070074712475794 a38.085894283958204,38.085894283958204 0 0,0 -0.6547362981738768,-0.03384238795109573 l 1.0287976915625887 -17.054892517762493" fill="red" stroke="none" /><path d="M 98.73552117531835 120.96189622390904 l -1.52804144387044 25.331105232472737 a46.37715119852489,46.37715119852489 0 0,0 -0.7964441795797216,-0.05492745366313637 l 1.9638483842290915 -25.301049434293315" fill="red" stroke="none" /><path d="M 98.37488393609728 120.93702456842531 l -1.9436218321122933 25.040462619597175 a46.115780577750456,46.115780577750456 0 0,0 -0.7908981150886227,-0.06824201729555651 l 2.3743642649424577 -25.003296350022957" fill="red" stroke="none" /><path d="M 98.01472825383883 120.90594882070398 l -1.412996116812933 14.879587421250895 a35.94652735095267,35.94652735095267 0 0,0 -0.6154856905060987,-0.06379760839010838 l 1.668914403924625 -14.853060444405026" fill="red" stroke="none" /><path d="M 97.65516085044442 120.86867818915974 l -1.78024742439369 15.843905797885412 a36.94360786724032,36.94360786724032 0 0,0 -0.631335607480738,-0.07644594984995143 l 2.0527104549258173 -15.810914319310113" fill="red" stroke="none" /><path d="M 97.2962882734958 120.8252237178851 l -2.0664201179520383 15.916512411303083 a37.0500921942225,37.0500921942225 0 0,0 -0.6317418432687164,-0.08755366303225423 l 2.3400905524075855 -15.878584182778225" fill="red" stroke="none" /><path d="M 96.93821686468263 120.77559828337769 l -2.3845494501161735 16.180258128349703 a37.355024585126,37.355024585126 0 0,0 -0.6353273855156734,-0.09922507144994316 l 2.662712699240364 -16.136814749552656" fill="red" stroke="none" /><path d="M 96.58105272829116 120.7198165907248 l -2.598883244183107 15.749989654934787 a36.96296865396435,36.96296865396435 0 0,0 -0.62687615731218,-0.10899045529223636 l 2.869608372967337 -15.702920621121544" fill="red" stroke="none" /><path d="M 96.22490169976321 120.6578951692458 l -4.563704037663336 24.97326217640464 a46.38683159188691,46.38683159188691 0 0,0 -0.7842298796442222,-0.15029952291665588 l 4.992901531879253 -24.891005455139517" fill="red" stroke="none" /><path d="M 95.86986931433489 120.58985236759428 l -4.91293895253171 24.49236971477121 a45.98025507068223,45.98025507068223 0 0,0 -0.7746765166505767,-0.1623409961028198 l 5.333806930611674 -24.404172737941852" fill="red" stroke="none" /><path d="M 95.51606077576429 120.51570834832081 l -3.491106338230233 15.973124493076451 a37.35018438844499,37.35018438844499 0 0,0 -0.6269136863518153,-0.14268351395794035 l 3.765540173974911 -15.910664245540826" fill="red" stroke="none" /><path d="M 95.16358092515715 120.4354850818985 l -3.7722285224189176 15.938924750417458 a37.37922556853104,37.37922556853104 0 0,0 -0.6248502073654962,-0.15357297844042364 l 4.046032014527625 -15.871630513663003" fill="red" stroke="none" /><path d="M 94.81253420990036 120.34920634021253 l -3.995815305127459 15.674642191684917 a37.175937307928706,37.175937307928706 0 0,0 -0.6187307326934285,-0.1634124100604542 l 4.265036480632377 -15.603538432320882" fill="red" stroke="none" /><path d="M 94.46302465271185 120.25689768951611 l -4.323741351401104 15.818308859576042 a37.39858635525507,37.39858635525507 0 0,0 -0.6195144071400622,-0.17508095961993506 l 4.59538692664578 -15.741539106617585" fill="red" stroke="none" /><path d="M 94.11515582081647 120.15858648285463 l -4.547913921205224 15.57891990097071 a37.22917947141979,37.22917947141979 0 0,0 -0.6136166998149453,-0.18487767807970054 l 4.815405595460415 -15.498326853785285" fill="red" stroke="none" /><path d="M 93.76903079525671 120.05430185196036 l -7.582863568157172 24.405358123467433 a46.55623847572219,46.55623847572219 0 0,0 -0.7632532933355735,-0.24436960178146183 l 8.001838206583685 -24.271215675026266" fill="red" stroke="none" /><path d="M 93.42475214034765 119.94407469862007 l -7.948795718471862 24.110326934756205 a46.38683159188691,46.38683159188691 0 0,0 -0.7561722117641227,-0.25653466992102525 l 8.36263766317321 -23.96992927793706" fill="red" stroke="none" /><path d="M 93.08242187328487 119.8279376855182 l -8.375392877912082 24.00648970390913 a46.425553165334975,46.425553165334975 0 0,0 -0.7522717918622939,-0.2697379000134615 l 8.787384230404104 -23.858764262855708" fill="red" stroke="none" /><path d="M 92.40401165467489 119.57807347666478 l -9.279057674452162 23.916054723338203 a46.65304240934235,46.65304240934235 0 0,0 -0.746179699229689,-0.29692030171743844 l 9.68935844972371 -23.752787577214697" fill="red" stroke="none" /><path d="M 91.7346041902142 119.30500536409082 l -10.037731374099884 23.44454669561952 a46.502996312231105,46.502996312231105 0 0,0 -0.7331514593069964,-0.321392054424862 l 10.439803508064625 -23.268290087900205" fill="red" stroke="none" /><path d="M 91.40352486487194 119.15986991738527 l -12.25275097625197 27.308997134859528 a50.931776275353414,50.931776275353414 0 0,0 -0.7967961208984407,-0.3657700187226445 l 12.72101509291783 -27.09404004580281" fill="red" stroke="none" /><path d="M 91.07499286063937 119.00905698771935 l -10.902551745223883 23.2209592889319 a46.65304240934235,46.65304240934235 0 0,0 -0.7239826438310542,-0.34755566539172206 l 11.30064705705518 -23.029849347040617" fill="red" stroke="none" /><path d="M 90.7491055286396 118.85261126421891 l -12.8336971012104 26.154087399969335 a50.133143822987094,50.133143822987094 0 0,0 -0.7714442629512587,-0.3868181683639564 l 13.281995271844421 -25.92930139069608" fill="red" stroke="none" /><path d="M 90.42595943632237 118.69057910512821 l -22.852358038747433 44.61270064828851 a71.12507682851874,71.12507682851874 0 0,0 -1.0848575793655475,-0.5675462119884069 l 23.61690652063948 -44.21272501735539" fill="red" stroke="none" /><path d="M 90.10565033884886 118.52300852407294 l -13.847224448949685 25.923104123733292 a50.38967424708052,50.38967424708052 0 0,0 -0.7615491963520759,-0.415257342058927 l 14.291396457170402 -25.6809061299146" fill="red" stroke="none" /><line stroke="#e1ed5e" stroke-width="0.3" x1="58.666819895761336" x2="56.23545636021788" y1="174.27360380694188" y2="178.64263932499728" /><path d="M 58.180547188652646 175.14741091055294 a86.0,86.0 0 0,1 -31.652253787137756,-30.449443065178592" fill="none" id="id8" stroke="none" /><text fill="#e1ed5e" style="font-size:6.75px; font-family:Arial;" text-anchor="middle"><textPath startOffset="22.20632615414155" xlink:href="#id8">August</textPath></text><path d="M 89.7882731507175 118.34994917583269 l -12.48614265568 22.436957677733353 a46.677243392747386,46.677243392747386 0 0,0 -0.6987166198680511,-0.39674953214470415 l 12.870508042469258 -22.218704979794015" fill="red" stroke="none" /><path d="M 89.4739219176387 118.17145234162733 l -12.94329131132394 22.344352698812646 a46.82244929317763,46.82244929317763 0 0,0 -0.693935741770538,-0.4099894678444296 l 13.32599492412286 -22.118244658674467" fill="red" stroke="none" /><path d="M 89.1626897886671 117.98757091392108 l -13.355969045789113 22.167995162124154 a46.88053165334972,46.88053165334972 0 0,0 -0.6876275651173098,-0.4223970128586214 l 13.735575810838732 -21.93480968243715" fill="red" stroke="none" /><path d="M 88.54995079064634 117.60387380957326 l -14.01874494470345 21.55311409260598 a46.71112476951444,46.71112476951444 0 0,0 -0.6702497020651986,-0.4442049549296365 l 14.38766934550861 -21.308611116585027" fill="red" stroke="none" /><path d="M 88.24862548938628 117.40417183066458 l -14.677481209207674 21.737832010687924 a47.2290258143823,47.2290258143823 0 0,0 -0.6698495326086457,-0.4607286165423628 l 15.049487626439209 -21.48196260478046" fill="red" stroke="none" /><path d="M 87.95078237400918 117.19931262002967 l -9.870064407522598 14.088742405866354 a38.2020590043024,38.2020590043024 0 0,0 -0.5353248564224075,-0.38194007130090474 l 10.111116591793893 -13.91675807272123" fill="red" stroke="none" /><path d="M 87.65650970185807 116.9893568818739 l -15.166674887690835 20.875137109081837 a46.80308850645359,46.80308850645359 0 0,0 -0.647699092895503,-0.4791523046256997 l 15.523758951004902 -20.61097485571637" fill="red" stroke="none" /><path d="M 86.51685102203217 116.09983520530335 l -16.38674966829081 19.56694015924198 a46.52235709895513,46.52235709895513 0 0,0 -0.6095193594730004,-0.5194456213830051 l 16.721134504340867 -19.281970147636024" fill="red" stroke="none" /><path d="M 86.24171649860922 115.8653595955263 l -16.70210799058664 19.260029730248235 a46.49331591886909,46.49331591886909 0 0,0 -0.6001128008828259,-0.5295297728601686 l 17.031163144376055 -18.969676815615777" fill="red" stroke="none" /><path d="M 85.97065885151581 115.62618273729859 l -16.97942617640377 18.91205106489433 a46.41587277197296,46.41587277197296 0 0,0 -0.5899246359394636,-0.5388821679525811 l 17.302450361810088 -18.616976130355173" fill="red" stroke="none" /><path d="M 85.70375840098266 115.38237550388516 l -17.381532214539746 18.70206609933794 a46.532037492317144,46.532037492317144 0 0,0 -0.5820142286673669,-0.5503307807014912 l 17.70088227759793 -18.400100681890518" fill="red" stroke="none" /><path d="M 85.44109423537348 115.13401014063109 l -17.59350251780966 18.288479218038294 a46.37715119852489,46.37715119852489 0 0,0 -0.5705494867054237,-0.5584027574900687 l 17.905701956890876 -17.982926357625654" fill="red" stroke="none" /><path d="M 85.18274418774928 114.88116024355367 l -18.107196600311926 18.18529001490201 a46.662722802704366,46.662722802704366 0 0,0 -0.5643064721991293,-0.571639477035281 l 18.41754369756659 -17.870910043886063" fill="red" stroke="none" /><path d="M 84.9287848128048 114.62390073753433 l -19.042809232376467 18.477617665142095 a47.5339582052858,47.5339582052858 0 0,0 -0.5647338647259644,-0.5921211993889351 l 19.35804964848139 -18.147089349170656" fill="red" stroke="none" /><path d="M 84.67929136418377 114.36230785411682 l -18.807182128385968 17.63068184488926 a46.77888752304855,46.77888752304855 0 0,0 -0.54565031089212,-0.5921956452281675 l 19.107878847273817 -17.304334944859747" fill="red" stroke="none" /><path d="M 84.43433777217949 114.09645910891817 l -19.147343110758616 17.340074277265582 a46.832129686539645,46.832129686539645 0 0,0 -0.535985139156245,-0.6021849857814948 l 19.442987099563197 -17.007915121743224" fill="red" stroke="none" /><path d="M 84.19399662182784 113.82643327865904 l -19.26447738101746 16.851762256656954 a46.594960049170254,46.594960049170254 0 0,0 -0.5228786358017755,-0.608225981577674 l 19.551698526390016 -16.51765917591775" fill="red" stroke="none" /><path d="M 83.72743513129214 113.27417163493432 l -19.799370761042276 16.151126012788485 a46.55139827904118,46.55139827904118 0 0,0 -0.5011636818900659,-0.6252787505966868 l 20.0744523549872 -15.807919428613538" fill="red" stroke="none" /><path d="M 83.50135304334701 112.99209946851258 l -23.732649582776116 18.688620032956447 a51.20766748617086,51.20766748617086 0 0,0 -0.5393708073383316,-0.6972094764013117 l 24.050827207332514 -18.27733256244188" fill="red" stroke="none" /><path d="M 83.28015986056508 112.70617746262583 l -25.353371606640064 19.267196110928563 a52.84365396435157,52.84365396435157 0 0,0 -0.5441354664978395,-0.7289583787209308 l 25.68126833983299 -18.827924852698324" fill="red" stroke="none" /><path d="M 83.06392112726016 112.41649034213515 l -21.09072698588199 15.462422553447183 a47.15158266748617,47.15158266748617 0 0,0 -0.47425557527833984,-0.6586995144968105 l 21.353762353535938 -15.097089433499235" fill="red" stroke="none" /><path d="M 82.85270091963577 112.12312394758628 l -21.393284401201193 15.12503148316331 a47.19998463429625,47.19998463429625 0 0,0 -0.4633220006892881,-0.6674498981806197 l 21.650467309052615 -14.754540322795679" fill="red" stroke="none" /><path d="M 82.6465618267979 111.8261652097733 l -21.014512329902537 14.321144440415386 a46.43039336201598,46.43039336201598 0 0,0 -0.44439832763445,-0.6643152030566138 l 21.257913762947716 -13.957292323152952" fill="red" stroke="none" /><path d="M 82.24976979558568 111.22182372390057 l -21.351825008490703 13.498777969046644 a46.2609864781807,46.2609864781807 0 0,0 -0.4197311299017133,-0.6767402267028103 l 21.58102077806037 -13.12924141097857" fill="red" stroke="none" /><line stroke="#e1ed5e" stroke-width="0.3" x1="26.63291911575756" x2="22.317208475507996" y1="142.92168965132927" y2="145.44649492493687" /><path d="M 25.769776987707644 143.4266507060508 a86.0,86.0 0 0,1 -11.730757126820373,-40.83630448921669" fill="none" id="id9" stroke="none" /><text fill="#e1ed5e" style="font-size:6.75px; font-family:Arial;" text-anchor="middle"><textPath startOffset="21.46611528233685" xlink:href="#id9">September</textPath></text><path d="M 81.87401531095188 110.60418214915194 l -21.89155495634885 12.807140702571333 a46.362630608481865,46.362630608481865 0 0,0 -0.3970584080028648,-0.6923048025058152 l 22.10876536050409 -12.428416054207212" fill="red" stroke="none" /><path d="M 81.51974371655577 109.97397251340807 l -22.736848810930855 12.271296544999755 a46.83696988322065,46.83696988322065 0 0,0 -0.3768089801960323,-0.7127805863590778 l 22.944710299351772 -11.87810094355455" fill="red" stroke="none" /><path d="M 81.35079622478065 109.6543875284942 l -13.07564794504086 6.769048907885528 a35.72387830362631,35.72387830362631 0 0,0 -0.27800208156057793,-0.5485244809833397 l 13.190228696387704 -6.542970215199504" fill="red" stroke="none" /><path d="M 80.87730276802145 108.67885076344099 l -27.441129294629317 12.45417751686777 a51.13506453595575,51.13506453595575 0 0,0 -0.35687140907550824,-0.8046508161647586 l 27.651441788436106 -11.979978364210314" fill="red" stroke="none" /><path d="M 80.73074385275274 108.34839909993369 l -45.749679065640905 19.82103391097501 a70.8588660110633,70.8588660110633 0 0,0 -0.47525722626114675,-1.1233676941662545 l 46.084087273094354 -19.030591691142597" fill="red" stroke="none" /><path d="M 80.45479744820244 107.68017299344265 l -28.08346482204349 11.035233199398009 a51.17378610940381,51.17378610940381 0 0,0 -0.31509825137162556,-0.8226221041169253 l 28.269257353008623 -10.550187528447925" fill="red" stroke="none" /><path d="M 80.0844068197444 106.66101706037122 l -48.519011965727195 16.227785109432354 a72.16087891825445,72.16087891825445 0 0,0 -0.3838537785070093,-1.1813804547935438 l 48.79115799525046 -15.390205754661007" fill="red" stroke="none" /><path d="M 79.58551787078972 104.9243191809786 l -48.05935474825304 11.592731126578546 a70.43776889981561,70.43776889981561 0 0,0 -0.2741687317612033,-1.1811117207649005 l 48.2517840459448 -10.76375074846507" fill="red" stroke="none" /><path d="M 79.35854240842038 103.8639653848113 l -61.92437277473888 11.591896154433886 a84.0,84.0 0 0,0 -0.25381423064324515,-1.4235249970671453 l 62.11473344772131 -10.524252406633527" fill="red" stroke="none" /><path d="M 79.29508885075956 103.50808413554451 l -48.66672185770298 8.245722652339332 a70.3603257529195,70.3603257529195 0 0,0 -0.1920443064154971,-1.1958600793699257 l 48.801447918479774 -7.406783343276192" fill="red" stroke="none" /><path d="M 79.23777060512086 103.15116336523772 l -33.88537484906405 5.14291359616971 a55.273432698217576,55.273432698217576 0 0,0 -0.13467226845592611,-0.9418975319163687 l 33.968881168536576 -4.558870592272941" fill="red" stroke="none" /><path d="M 79.0235259727143 100.99374915477108 l -39.82887055242309 1.8868712823457623 a60.87354025814383,60.87354025814383 0 0,0 -0.04057617759097967,-1.0470908474310006 l 39.85544886286527 -1.2010031879007652" fill="red" stroke="none" /><path d="M 79.0095281055655 100.63252640178507 l -26.420321223610973 0.7961493577477636 a47.43231407498463,47.43231407498463 0 0,0 -0.01756788407525091,-0.8163105413019363 l 26.43011117037123 -0.3412490006556986" fill="red" stroke="none" /><line stroke="#e1ed5e" stroke-width="0.3" x1="15.007084014347285" x2="10.007500721073583" y1="101.09737516637583" y2="101.16192664675087" /><path d="M 14.007167355692545 101.11028546245083 a86.0,86.0 0 0,1 10.666146001902534,-42.60595125391555" fill="none" id="id10" stroke="none" /><text fill="#e1ed5e" style="font-size:6.75px; font-family:Arial;" text-anchor="middle"><textPath startOffset="22.20632615414155" xlink:href="#id10">October</textPath></text><path d="M 79.05617556472873 98.46500227214037 l -43.44524122252029 -3.184153246174714 a64.5617701290719,64.5617701290719 0 0,0 0.09077236136132488,-1.1076527265683418 l 43.38399437733946 3.9315198899508346" fill="red" stroke="none" /><line stroke="#e1ed5e" stroke-width="0.3" x1="26.266209847984243" x2="21.928928074336255" y1="57.711370442889674" y2="55.22380399835377" /><path d="M 25.398753493254645 57.213857153982495 a86.0,86.0 0 0,1 29.58750427330803,-30.492523968695096" fill="none" id="id11" stroke="none" /><text fill="#e1ed5e" style="font-size:6.75px; font-family:Arial;" text-anchor="middle"><textPath startOffset="21.46611528233685" xlink:href="#id11">November</textPath></text><line stroke="#e1ed5e" stroke-width="0.3" x1="56.762969772571076" x2="54.21961505331055" y1="26.818313649435495" y2="22.513508569990535" /><path d="M 56.25429882871897 25.957352633546506 a86.0,86.0 0 0,1 42.265352541879196,-11.944610805530505" fill="none" id="id12" stroke="none" /><text fill="#e1ed5e" style="font-size:6.75px; font-family:Arial;" text-anchor="middle"><textPath startOffset="22.20632615414155" xlink:href="#id12">December</textPath></text></svg>