<?xml version="1.0" encoding="utf-8" ?>
<svg baseProfile="full" height="200mm" version="1.1" viewBox="0,0,200,200" width="200mm" xmlns="http://www.w3.org/2000/svg" xmlns:ev="http://www.w3.org/2001/xml-events" xmlns:xlink="http://www.w3.org/1999/xlink"><defs /><rect fill="#1a1a1a" height="200" width="200" x="0" y="0" /><rect fill="#1a1a1a" height="200" width="180" x="10" y="0" /><text alignment-baseline="middle" fill="#e1ed5e" style="dominant-baseline: central; font-size:9.0px; font-family:Arial;" text-anchor="middle" x="100.0" y="100.0">2020</text><line stroke="#e1ed5e" stroke-width="0.3" x1="100.0" x2="100.0" y1="15.0" y2="10.0" /><path d="M 100.0 14.0 a86.0,86.0 0 0,1 42.35913384403234,11.155469271406648" fill="none" id="id13" stroke="none" /><text fill="#e1ed5e" style="font-size:6.75px; font-family:Arial;" text-anchor="middle"><textPath startOffset="22.145653131862478" xlink:href="#id13">January</textPath></text><line stroke="#e1ed5e" stroke-width="0.3" x1="143.13028292997686" x2="145.6673583964461" y1="26.7553504044142" y2="22.446841604673864" /><path d="M 143.63769802327073 25.89364864446614 a86.0,86.0 0 0,1 29.32050498858742,28.57503671076993" fill="none" id="id14" stroke="none" /><text fill="#e1ed5e" style="font-size:6.75px; font-family:Arial;" text-anchor="middle"><textPath startOffset="20.669276256404974" xlink:href="#id14">February</textPath></text><line stroke="#e1ed5e" stroke-width="0.3" x1="172.87174338648825" x2="177.1583165268699" y1="56.24261187166439" y2="53.66864786411523" /><path d="M 173.72905801456457 55.72781907015455 a86.0,86.0 0 0,1 12.242430191666344,42.057860355516425" fill="none" id="id15" stroke="none" /><text fill="#e1ed5e" style="font-size:6.75px; font-family:Arial;" text-anchor="middle"><textPath startOffset="22.145653131862474" xlink:href="#id15">March</textPath></text><line stroke="#e1ed5e" stroke-width="0.3" x1="184.99686870605535" x2="189.99668451229388" y1="99.2704041080226" y2="99.22748670261217" /><path d="M 185.99683186730306 99.26182062694052 a86.0,86.0 0 0,1 -10.086455211305974,41.156179273409016" fill="none" id="id16" stroke="none" /><text fill="#e1ed5e" style="font-size:6.75px; font-family:Arial;" text-anchor="middle"><textPath startOffset="21.40746469413373" xlink:href="#id16">April</textPath></text><line stroke="#e1ed5e" stroke-width="0.3" x1="174.33088141563837" x2="178.70328620479359" y1="141.23008692659167" y2="143.65538615756765" /><path d="M 175.20536237346943 141.71514677278685 a86.0,86.0 0 0,1 -30.301960400862466,31.631185727798858" fill="none" id="id17" stroke="none" /><text fill="#e1ed5e" style="font-size:6.75px; font-family:Arial;" text-anchor="middle"><textPath startOffset="22.145653131862474" xlink:href="#id17">May</textPath></text><line stroke="#e1ed5e" stroke-width="0.3" x1="143.1302829299769" x2="145.66735839644613" y1="173.24464959558577" y2="177.55315839532614" /><path d="M 143.63769802327073 174.10635135553383 a86.0,86.0 0 0,1 -40.68552437913181,11.842963189579606" fill="none" id="id18" stroke="none" /><text fill="#e1ed5e" style="font-size:6.75px; font-family:Arial;" text-anchor="middle"><textPath startOffset="21.407464694133747" xlink:href="#id18">June</textPath></text><path d="M 110.34350942703117 118.27599006163325 l 17.368735964497205 30.68889220913036 a56.26302729528536,56.26302729528536 0 0,0 -0.8446307784176669,0.4685024548586671 l -16.839360997923443 -30.982527579422168" fill="red" stroke="none" /><path d="M 109.3889696526874 118.78422872680471 l 15.700979913701795 31.412477496880964 a56.11786600496278,56.11786600496278 0 0,0 -0.8653902732853207,0.42330574792346004 l -15.159429391154406 -31.67737699490165" fill="red" stroke="none" /><path d="M 107.74402155503746 119.51999308798841 l 13.110757513952123 33.04767351585701 a56.55334987593052,56.55334987593052 0 0,0 -0.9054668989140934,0.3502540481443835 l -12.5415183525445 -33.267867452139434" fill="red" stroke="none" /><path d="M 107.06938296918513 119.77432235084164 l 19.542922043668973 54.66503114251633 a79.05334987593052,79.05334987593052 0 0,0 -1.2817718730123684,0.4458667938099446 l -18.601644398611583 -54.99245636889486" fill="red" stroke="none" /><path d="M 105.69591212413111 120.21278271476187 l 15.776323779474803 55.98460749443171 a79.16501240694788,79.16501240694788 0 0,0 -1.3111935100177186,0.35737162177388204 l -14.812948868522389 -56.24717961034973" fill="red" stroke="none" /><path d="M 105.3480935250658 120.30758222061773 l 14.824323757267658 56.290371915675415 a79.20967741935485,79.20967741935485 0 0,0 -1.317878191221255,0.3349994826858595 l -13.855840272821005 -56.53655663019654" fill="red" stroke="none" /><path d="M 104.29559338865022 120.5559693870025 l 11.870364502383113 56.80399126422477 a79.03101736972704,79.03101736972704 0 0,0 -1.3303686853458265,0.26611099621720347 l -10.893499331506327 -56.99939165710484" fill="red" stroke="none" /><path d="M 102.875027216393 120.80226474461374 l 7.93868291460234 57.44035491959188 a78.9863523573201,78.9863523573201 0 0,0 -1.3447320350329415,0.17410248440826376 l -6.951473057678623 -57.56816900020054" fill="red" stroke="none" /><line stroke="#e1ed5e" stroke-width="0.3" x1="101.45913802915013" x2="101.54496967792366" y1="184.9874750549273" y2="189.98673829345242" /><path d="M 101.47630435890484 185.9873277026323 a86.0,86.0 0 0,1 -42.54439059252881,-10.42667462771756" fill="none" id="id19" stroke="none" /><text fill="#e1ed5e" style="font-size:6.75px; font-family:Arial;" text-anchor="middle"><textPath startOffset="22.145653131862474" xlink:href="#id19">July</textPath></text><path d="M 100.0 121.0 l 7.098545137638362e-15 57.96401985111663 a78.96401985111663,78.96401985111663 0 0,0 -1.355522403521517,-0.01163552954536275 l 0.9950294786726579 -57.9554787197657" fill="red" stroke="none" /><path d="M 99.63950707515114 120.99690560180557 l -0.6338976085475783 36.92135775886441 a57.92679900744417,57.92679900744417 0 0,0 -0.9940974819420441,-0.02560442482828993 l 1.2676084045603662 -36.90503561668607" fill="red" stroke="none" /><path d="M 98.55909050195518 120.95050786540614 l -4.058400005925247 59.00824538978533 a80.14764267990074,80.14764267990074 0 0,0 -1.37178798927771,-0.10618506616368482 l 5.070756989978193 -58.929882556626595" fill="red" stroke="none" /><path d="M 97.84075906011543 120.88869738790638 l -5.959918319181567 57.65680333602729 a78.96401985111663,78.96401985111663 0 0,0 -1.347141589425566,-0.15095002496359683 l 6.948795810207932 -57.54599755055672" fill="red" stroke="none" /><path d="M 97.12497278360702 120.80226474461374 l -7.984544745420337 57.772188281345734 a79.3213399503722,79.3213399503722 0 0,0 -1.3472347880883777,-0.19799711927109478 l 8.975104639116399 -57.62661008877576" fill="red" stroke="none" /><path d="M 96.05791012581884 120.62667999033965 l -10.929133252736948 57.18584339044538 a79.22084367245657,79.22084367245657 0 0,0 -1.3335641265436171,-0.26675017395031125 l 11.909193864811522 -56.989803819832204" fill="red" stroke="none" /><path d="M 95.35216902796893 120.47920084513623 l -12.903044401794176 56.85319440577258 a79.29900744416874,79.29900744416874 0 0,0 -1.3249272358333373,-0.3126792200668422 l 13.877103791367402 -56.62331904205951" fill="red" stroke="none" /><path d="M 94.6519064749342 120.30758222061772 l -14.90963542285716 56.614314205617895 a79.54466501240694,79.54466501240694 0 0,0 -1.3174816165587788,-0.3590854731736069 l 15.879298440350635 -56.35002823830014" fill="red" stroke="none" /><path d="M 92.93061703081489 119.77432235084164 l -19.572993860623992 54.74914736662484 a79.14267990074441,79.14267990074441 0 0,0 -1.275368640265592,-0.4683330304019135 l 20.509951652543705 -54.405083487214206" fill="red" stroke="none" /><line stroke="#e1ed5e" stroke-width="0.3" x1="58.13341422392154" x2="55.67067388415222" y1="173.97424548756322" y2="178.32567169271397" /><path d="M 57.64086615596768 174.84453072859336 a86.0,86.0 0 0,1 -31.369924170532247,-30.572349798747897" fill="none" id="id20" stroke="none" /><text fill="#e1ed5e" style="font-size:6.75px; font-family:Arial;" text-anchor="middle"><textPath startOffset="22.145653131862474" xlink:href="#id20">August</textPath></text><path d="M 88.72937992617639 117.7192867562869 l -31.510592173784747 49.539884667435224 a79.712158808933,79.712158808933 0 0,0 -1.1482892058815812,-0.7443071900158439 l 32.35636701192334 -48.99166363571549" fill="red" stroke="none" /><path d="M 88.1277618465304 117.32195027204791 l -35.61671446040878 51.96585081614375 a84.0,84.0 0 0,0 -1.1824196353049383,-0.8254207367794839 l 36.503529186887484 -51.346785263559134" fill="red" stroke="none" /><path d="M 87.83215693770417 117.11559508785305 l -22.80661828851088 32.08036477384721 a60.36104218362283,60.36104218362283 0 0,0 -0.8393605024398422,-0.6076322741302727 l 23.353959801324674 -31.68413172834387" fill="red" stroke="none" /><path d="M 84.83555147118756 114.52719865689866 l -11.683774859047793 11.192792017287923 a37.17990074441687,37.17990074441687 0 0,0 -0.4375616938689416,-0.4646753556565912 l 11.874192386652988 -10.990575201686841" fill="red" stroke="none" /><line stroke="#e1ed5e" stroke-width="0.3" x1="26.387840678322732" x2="22.057713659400534" y1="142.50000000000003" y2="145.00000000000006" /><path d="M 25.521815274538284 143.00000000000003 a86.0,86.0 0 0,1 -11.493303480769212,-40.785679425670985" fill="none" id="id21" stroke="none" /><text fill="#e1ed5e" style="font-size:6.75px; font-family:Arial;" text-anchor="middle"><textPath startOffset="21.40746469413373" xlink:href="#id21">September</textPath></text><path d="M 80.41425534168474 107.57618678355246 l -54.37283207784332 21.032579509177992 a79.29900744416874,79.29900744416874 0 0,0 -0.4802095500413757,-1.2738128838113687 l 54.725872311699135 -20.09609834517248" fill="red" stroke="none" /><line stroke="#e1ed5e" stroke-width="0.3" x1="15.003131293944662" x2="10.003315487706104" y1="100.72959589197737" y2="100.7725132973878" /><path d="M 14.003168132696942 100.73817937305945 a86.0,86.0 0 0,1 10.791469493833604,-42.45332614584628" fill="none" id="id22" stroke="none" /><text fill="#e1ed5e" style="font-size:6.75px; font-family:Arial;" text-anchor="middle"><textPath startOffset="22.145653131862435" xlink:href="#id22">October</textPath></text><path d="M 81.1358732173502 90.77261029715801 l -25.51772697716826 -12.481998974138605 a49.406947890818856,49.406947890818856 0 0,0 0.37921029280880525,-0.7586746085221754 l 25.29969677114771 12.918205438824552" fill="red" stroke="none" /><path d="M 81.46374523516351 90.13048839642627 l -25.261478710887587 -13.450314555100743 a49.61910669975186,49.61910669975186 0 0,0 0.406769522204495,-0.7484101054501676 l 25.026863839067744 13.88197949402553" fill="red" stroke="none" /><path d="M 81.63589988554816 89.8137432299009 l -26.257212978249385 -14.564433421550781 a51.02605459057072,51.02605459057072 0 0,0 0.43145356237540816,-0.7623371036354779 l 26.003326050852607 15.013027295285365" fill="red" stroke="none" /><line stroke="#e1ed5e" stroke-width="0.3" x1="26.387840678322718" x2="22.05771365940052" y1="57.49999999999999" y2="54.99999999999999" /><path d="M 25.521815274538284 56.99999999999999 a86.0,86.0 0 0,1 29.574782752854787,-30.34633250058573" fill="none" id="id23" stroke="none" /><text fill="#e1ed5e" style="font-size:6.75px; font-family:Arial;" text-anchor="middle"><textPath startOffset="21.40746469413373" xlink:href="#id23">November</textPath></text><path d="M 81.99639281039701 89.18935116829357 l -24.928071493296446 -14.968590690055057 a50.07692307692308,50.07692307692308 0 0,0 0.44886100783713423,-0.7331807230876282 l 24.667442521003917 15.39430852926723" fill="red" stroke="none" /><path d="M 82.37810715431573 88.57770195909679 l -25.67386727960382 -16.641490587774626 a51.59553349875931,51.59553349875931 0 0,0 0.4881319793833489,-0.7390940316313251 l 25.38441086129974 17.07976449774501" fill="red" stroke="none" /><path d="M 82.78059297857968 87.97951657250589 l -29.6563236489084 -20.702417133101797 a57.16749379652605,57.16749379652605 0 0,0 0.568639348046465,-0.7998624556838847 l 29.296569202331963 21.208456815495204" fill="red" stroke="none" /><path d="M 82.98947788004972 87.6856937992154 l -29.21516471859594 -21.149526247005095 a57.06699751861042,57.06699751861042 0 0,0 0.5812626436974283,-0.7885944108985797 l 28.84780005531469 21.64792696717254" fill="red" stroke="none" /><path d="M 83.42222388311158 87.10902102172516 l -31.169274911016004 -24.237416696479904 a60.483870967741936,60.483870967741936 0 0,0 0.6443939209632441,-0.814170668448494 l 30.748614559411198 24.76890730884308" fill="red" stroke="none" /><path d="M 83.8745106332314 86.54754324733833 l -27.32644520306179 -22.79669248709647 a56.58684863523573,56.58684863523573 0 0,0 0.6286675914571673,-0.740568841974369 l 26.93108304809751 23.262428111520393" fill="red" stroke="none" /><path d="M 84.34580500576568 86.00192230759919 l -36.333159065845145 -32.48933487805542 a69.74069478908189,69.74069478908189 0 0,0 0.805678709557951,-0.8855820359404761 l 35.77008265544533 33.10825448955356" fill="red" stroke="none" /><path d="M 85.60350026404147 84.71141617570332 l -26.830768295569644 -28.493346138333845 a60.13771712158809,60.13771712158809 0 0,0 0.757649979595969,-0.7012695100566056 l 26.33768854465972 28.949733394522816" fill="red" stroke="none" /><line stroke="#e1ed5e" stroke-width="0.3" x1="56.869717070023135" x2="54.33264160355391" y1="26.7553504044142" y2="22.446841604673864" /><path d="M 56.362301976729285 25.89364864446614 a86.0,86.0 0 0,1 42.16139366436587,-11.88097634709845" fill="none" id="id24" stroke="none" /><text fill="#e1ed5e" style="font-size:6.75px; font-family:Arial;" text-anchor="middle"><textPath startOffset="22.145653131862474" xlink:href="#id24">December</textPath></text></svg>